#!OML:ASF E:\CV Data\Top Level 1\Subject 1\Session 1\player.ASF
:FULLY-SPECIFIED
:DEGREES
811
root 11.4308 16.5728 -2.16934 179.008 -76.2691 -171.63
lowerback 15.9307 1.34724 2.48538
upperback 5.50669 1.83486 0.801831
thorax -3.01557 0.769397 -0.886746
lowerneck -13.3558 18.0557 -1.29409
upperneck 12.7314 24.5283 0.469414
head 5.76697 11.9048 2.40768
rclavicle 6.16232e-015 5.76476e-015
rhumerus 2.78183 10.8948 -15.602
rradius 125.184
rwrist -64.0709
rhand -42.1275 -8.85691
rfingers 7.12502
rthumb -15.018 -38.2923
lclavicle 6.16232e-015 5.76476e-015
lhumerus 80.6606 -62.4482 43.9865
lradius 70.2493
lwrist 20.2361
lhand -34.1374 20.1675
lfingers 7.12502
lthumb -7.31219 50.0211
rfemur -33.2427 4.18612 13.0983
rtibia 50.6145
rfoot -24.3663 -0.235381
rtoes -7.05248
lfemur -28.6059 10.5836 -5.03263
ltibia 41.2902
lfoot -15.553 -4.00043
ltoes -12.2092
812
root 11.4337 16.5712 -2.19582 178.573 -76.3551 -171.191
lowerback 15.9382 1.31458 2.52137
upperback 5.49532 1.79851 0.791417
thorax -3.03109 0.751812 -0.911807
lowerneck -13.3568 18.0641 -1.25976
upperneck 12.7287 24.5255 0.512925
head 5.76447 11.9085 2.41532
rclavicle 3.37934e-014 2.40529e-014
rhumerus 2.82199 10.7139 -15.6708
rradius 125.126
rwrist -64.0129
rhand -42.0956 -8.88059
rfingers 7.12502
rthumb -14.9873 -38.3182
lclavicle 3.37934e-014 2.40529e-014
lhumerus 80.6973 -62.352 44.0086
lradius 70.2109
lwrist 20.1779
lhand -34.1211 20.0919
lfingers 7.12502
lthumb -7.29648 49.9461
rfemur -33.2394 4.09765 13.3204
rtibia 50.6767
rfoot -24.3895 -0.257347
rtoes -7.06523
lfemur -28.5885 10.5573 -4.83601
ltibia 41.2406
lfoot -15.5117 -4.03748
ltoes -12.2181
813
root 11.4364 16.5698 -2.22096 178.196 -76.4304 -170.812
lowerback 15.9468 1.28903 2.51914
upperback 5.4826 1.76647 0.798225
thorax -3.05046 0.735955 -0.898059
lowerneck -13.3636 18.0716 -1.24491
upperneck 12.7383 24.5264 0.554184
head 5.76479 11.9125 2.42595
rclavicle -2.80286e-014 2.98177e-014
rhumerus 2.86774 10.5344 -15.7247
rradius 125.074
rwrist -63.9781
rhand -42.0724 -8.89033
rfingers 7.12502
rthumb -14.9649 -38.3297
lclavicle -2.80286e-014 2.98177e-014
lhumerus 80.73 -62.2424 44.0449
lradius 70.1712
lwrist 20.1084
lhand -34.1115 20.0167
lfingers 7.12502
lthumb -7.28721 49.8713
rfemur -33.2382 4.01506 13.5223
rtibia 50.7371
rfoot -24.4105 -0.284185
rtoes -7.11245
lfemur -28.5691 10.5253 -4.65895
ltibia 41.1938
lfoot -15.471 -4.05822
ltoes -12.2487
814
root 11.4387 16.5686 -2.24452 177.853 -76.4947 -170.468
lowerback 15.9557 1.26844 2.5089
upperback 5.46997 1.7398 0.808053
thorax -3.07008 0.722666 -0.877569
lowerneck -13.379 18.0758 -1.2432
upperneck 12.7561 24.5259 0.595919
head 5.76751 11.9148 2.43929
rclavicle -1.33186e-014 3.97569e-015
rhumerus 2.89803 10.3498 -15.7864
rradius 125.028
rwrist -63.948
rhand -42.0605 -8.89616
rfingers 7.12502
rthumb -14.9534 -38.3363
lclavicle -1.33186e-014 3.97569e-015
lhumerus 80.7899 -62.1263 44.047
lradius 70.139
lwrist 20.0375
lhand -34.0971 19.9394
lfingers 7.12502
lthumb -7.27329 49.7944
rfemur -33.2376 3.94043 13.709
rtibia 50.7934
rfoot -24.4301 -0.309338
rtoes -7.1648
lfemur -28.5466 10.483 -4.49388
ltibia 41.1484
lfoot -15.4301 -4.05926
ltoes -12.2896
815
root 11.4407 16.5676 -2.26661 177.529 -76.5499 -170.141
lowerback 15.9668 1.25212 2.49506
upperback 5.4576 1.71829 0.821128
thorax -3.09068 0.711831 -0.852599
lowerneck -13.4008 18.077 -1.2485
upperneck 12.7784 24.5238 0.632355
head 5.77261 11.9154 2.45277
rclavicle 4.04527e-014 1.61016e-014
rhumerus 2.91033 10.1637 -15.8521
rradius 124.993
rwrist -63.9159
rhand -42.0611 -8.90677
rfingers 7.12502
rthumb -14.954 -38.3469
lclavicle 4.04527e-014 1.61016e-014
lhumerus 80.8842 -62.0072 44.0121
lradius 70.1104
lwrist 19.9634
lhand -34.08 19.8589
lfingers 7.12502
lthumb -7.25676 49.7145
rfemur -33.2355 3.87942 13.8828
rtibia 50.8444
rfoot -24.4487 -0.325345
rtoes -7.15497
lfemur -28.5207 10.4312 -4.33613
ltibia 41.1038
lfoot -15.3893 -4.04503
ltoes -12.3308
816
root 11.4424 16.5669 -2.28738 177.233 -76.5967 -169.844
lowerback 15.9786 1.24013 2.47724
upperback 5.44528 1.70188 0.835187
thorax -3.11156 0.703477 -0.825263
lowerneck -13.4287 18.0741 -1.26972
upperneck 12.8023 24.52 0.665466
head 5.77779 11.9141 2.46751
rclavicle 1.21259e-014 3.97569e-015
rhumerus 2.90015 9.97743 -15.9247
rradius 124.972
rwrist -63.8774
rhand -42.0717 -8.91365
rfingers 7.12502
rthumb -14.9642 -38.353
lclavicle 1.21259e-014 3.97569e-015
lhumerus 81.0132 -61.8884 43.938
lradius 70.0856
lwrist 19.8838
lhand -34.0665 19.7776
lfingers 7.12502
lthumb -7.24374 49.6336
rfemur -33.2323 3.82892 14.0431
rtibia 50.889
rfoot -24.4669 -0.341598
rtoes -7.13138
lfemur -28.4919 10.3706 -4.18912
ltibia 41.0598
lfoot -15.351 -4.0121
ltoes -12.3915
